<mxfile host="65bd71144e">
    <diagram id="hVDCnTlzoUPTP9BWiYHe" name="PÃ¡gina-1">
        <mxGraphModel dx="1171" dy="353" grid="1" gridSize="10" guides="1" tooltips="1" connect="1" arrows="1" fold="1" page="1" pageScale="1" pageWidth="827" pageHeight="1169" math="0" shadow="0">
            <root>
                <mxCell id="0"/>
                <mxCell id="1" parent="0"/>
                <mxCell id="8" style="edgeStyle=none;html=1;" edge="1" parent="1" source="2" target="3">
                    <mxGeometry relative="1" as="geometry"/>
                </mxCell>
                <mxCell id="2" value="INICIO" style="ellipse;whiteSpace=wrap;html=1;fillColor=#FFFF33;strokeColor=#000000;fontColor=#000000;" vertex="1" parent="1">
                    <mxGeometry x="105" y="20" width="80" height="30" as="geometry"/>
                </mxCell>
                <mxCell id="7" style="edgeStyle=none;html=1;" edge="1" parent="1" source="3" target="4">
                    <mxGeometry relative="1" as="geometry"/>
                </mxCell>
                <mxCell id="3" value="EDAD" style="shape=card;whiteSpace=wrap;html=1;strokeColor=#000000;fillColor=#9933FF;" vertex="1" parent="1">
                    <mxGeometry x="110" y="70" width="70" height="40" as="geometry"/>
                </mxCell>
                <mxCell id="6" value="" style="edgeStyle=none;html=1;" edge="1" parent="1" source="4" target="5">
                    <mxGeometry relative="1" as="geometry"/>
                </mxCell>
                <mxCell id="4" value="edad" style="shape=parallelogram;perimeter=parallelogramPerimeter;whiteSpace=wrap;html=1;fixedSize=1;strokeColor=#000000;fillColor=#FF9933;" vertex="1" parent="1">
                    <mxGeometry x="90" y="140" width="110" height="40" as="geometry"/>
                </mxCell>
                <mxCell id="10" value="" style="edgeStyle=none;html=1;" edge="1" parent="1" source="5" target="9">
                    <mxGeometry relative="1" as="geometry">
                        <Array as="points">
                            <mxPoint x="255" y="280"/>
                        </Array>
                    </mxGeometry>
                </mxCell>
                <mxCell id="12" value="" style="edgeStyle=none;html=1;" edge="1" parent="1" source="5" target="11">
                    <mxGeometry relative="1" as="geometry">
                        <Array as="points">
                            <mxPoint x="30" y="280"/>
                        </Array>
                    </mxGeometry>
                </mxCell>
                <mxCell id="5" value="edad &amp;gt;=18" style="rhombus;whiteSpace=wrap;html=1;fillColor=#3333FF;strokeColor=#000000;" vertex="1" parent="1">
                    <mxGeometry x="105" y="240" width="80" height="80" as="geometry"/>
                </mxCell>
                <mxCell id="14" style="edgeStyle=none;html=1;" edge="1" parent="1" source="9">
                    <mxGeometry relative="1" as="geometry">
                        <mxPoint x="140" y="450" as="targetPoint"/>
                        <Array as="points">
                            <mxPoint x="255" y="410"/>
                            <mxPoint x="140" y="410"/>
                        </Array>
                    </mxGeometry>
                </mxCell>
                <mxCell id="9" value="mayor de edad" style="shape=document;whiteSpace=wrap;html=1;boundedLbl=1;fillColor=#FF3333;strokeColor=#000000;" vertex="1" parent="1">
                    <mxGeometry x="200" y="320" width="110" height="50" as="geometry"/>
                </mxCell>
                <mxCell id="13" style="edgeStyle=none;html=1;" edge="1" parent="1" source="11">
                    <mxGeometry relative="1" as="geometry">
                        <mxPoint x="140" y="450" as="targetPoint"/>
                        <Array as="points">
                            <mxPoint x="30" y="410"/>
                            <mxPoint x="140" y="410"/>
                        </Array>
                    </mxGeometry>
                </mxCell>
                <mxCell id="11" value="menor de edad" style="shape=document;whiteSpace=wrap;html=1;boundedLbl=1;fillColor=#009900;strokeColor=#000000;" vertex="1" parent="1">
                    <mxGeometry x="-20" y="320" width="100" height="50" as="geometry"/>
                </mxCell>
                <mxCell id="15" value="FIN" style="ellipse;whiteSpace=wrap;html=1;strokeColor=#000000;fillColor=#CC0066;" vertex="1" parent="1">
                    <mxGeometry x="105" y="450" width="70" height="50" as="geometry"/>
                </mxCell>
                <mxCell id="16" value="True" style="text;html=1;strokeColor=none;fillColor=none;align=center;verticalAlign=middle;whiteSpace=wrap;rounded=0;" vertex="1" parent="1">
                    <mxGeometry x="190" y="250" width="60" height="30" as="geometry"/>
                </mxCell>
                <mxCell id="17" value="False" style="text;html=1;strokeColor=none;fillColor=none;align=center;verticalAlign=middle;whiteSpace=wrap;rounded=0;" vertex="1" parent="1">
                    <mxGeometry x="50" y="250" width="60" height="30" as="geometry"/>
                </mxCell>
            </root>
        </mxGraphModel>
    </diagram>
</mxfile>